<svg xmlns="http://www.w3.org/2000/svg" stroke="white" width="81" height="48" viewBox="0 0 81 48">
    <g fill="none" fill-rule="evenodd">
        <path fill="#004B8D" d="M54.742.839c-1.344-.315-2.694-.616-4.09-.82-.052-.008-.11-.011-.163-.02a41.064 41.064 0 0 0-5.451 4.818 50.702 50.702 0 0 1 5.576-.507 49.141 49.141 0 0 1 18.611 2.912C65.124 4.398 60.174 2.169 54.742.839"/>
        <path fill="#F58B1E" d="M51.787 15.426c7.5-3.54 15.351-5.035 22.76-4.71C68.17 7.902 60.85 6.419 53.111 6.7c-3.815.14-7.5.702-10.989 1.624a34.716 34.716 0 0 0-4.27 7.499 48.614 48.614 0 0 0 5.493 4.648 50.395 50.395 0 0 1 8.442-5.044"/>
        <path fill="#FDC180" d="M42.123 8.322a47.74 47.74 0 0 0-8.282 3.023 47.71 47.71 0 0 0 9.502 9.125h.003a48.63 48.63 0 0 1-5.494-4.65 34.876 34.876 0 0 1 4.27-7.498"/>
        <path fill="#FDC180" d="M43.349 20.472a48.555 48.555 0 0 1-5.498-4.65 31.619 31.619 0 0 0-2.426 12.026 47.665 47.665 0 0 1 7.924-7.376"/>
        <path fill="#004B8D" d="M80.645 43.318c-.091.002-.182.005-.277.005-3.805 0-6.564-2.437-6.564-5.79v-.076c0-3.21 2.765-5.724 6.293-5.724.189 0 .372.006.548.016v-3.856c-.163-.007-.333-.007-.502-.007-6.913 0-12.13 4.144-12.13 9.646v.07c0 5.366 5.289 9.571 12.042 9.571.205 0 .394-.004.59-.009v-3.846zM10.756 35.238c-4.079-.87-4.653-1.288-4.653-2.577v-.06c0-.95 1.047-1.707 3.034-1.707 1.014 0 2.338.276 3.267.62v-4.11c-.864-.15-2.19-.323-3.198-.323-4.823 0-8.258 2.355-8.258 5.92v.052c0 3.896 3.063 4.988 7.82 5.997 3.943.84 4.315 1.402 4.315 2.496v.055c0 1.15-1.282 1.85-3.407 1.85-2.696 0-4.483-.925-6.606-2.383L0 44.124c2.832 2.1 6.002 3.14 9.576 3.14 5.091 0 8.665-2.187 8.665-6.084v-.055c0-3.42-2.7-4.85-7.485-5.887"/>
        <path fill="#004B8D" d="M26.588 29.89c-5.295 0-8.993 3.784-8.993 8.373v.059c0 4.92 4.037 8.313 9.502 8.313.156 0 .665-.021.822-.025v-3.666c-.13.005-.62.029-.757.029-2.308 0-3.936-1.078-4.448-3.15h12.551c.03-.422.065-.691.065-1.143v-.058c0-4.561-2.67-8.731-8.742-8.731zm-3.939 7.085c.408-2.071 1.8-3.424 3.94-3.424 2.167 0 3.527 1.38 3.834 3.424H22.65z"/>
        <path fill="#004B8D" d="M51.696 37.822c0-4.352-2.66-7.747-8.289-7.747-5.634 0-8.295 3.395-8.295 7.747v8.516h5.214v-8.83c.095-1.61.727-3.514 3.081-3.514 2.348 0 3.033 1.903 3.124 3.514v8.83h5.165v-8.516z"/>
        <path fill="#004B8D" d="M63.343 40.614c-.45 2.352-2.876 2.703-3.426 2.733-3.925.207-4.065-2.478-2.745-3.295 1.774-1.1 6.187-.482 6.187-.482 0 .16.042.561-.016 1.044m-3.168-10.632c-.23 0-1.018.003-1.233.01v3.892c1.004.01 2.38.178 2.993.501.9.474 1.368 1.273 1.39 2.355a43.764 43.764 0 0 0-3.828-.272c-4.925-.126-7.36 1.501-7.85 4.108-.01.05-.018.1-.026.148l-.007.05c-.04.25-.061.51-.061.788v.06c0 3.184 2.817 4.925 6.24 4.925 2.515 0 4.247-.815 5.499-2.043v1.853h4.988v-9.445c0-4.353-2.477-6.93-8.105-6.93"/>
    </g>
</svg>
